<svg xmlns="http://www.w3.org/2000/svg" viewBox="0 0 64 64" fill="none">
  <path d="M22.4 7h12.2L21.3 53.5c-.3.9-1.1 1.5-2.1 1.5H8.5c-1.2 0-2.2-1-2.2-2.2 0-.3.1-.6.2-.9L19.1 8.5c.3-.9 1.2-1.5 2.1-1.5h1.2z" fill="#0089D6"/>
  <path d="M47 40.5H24.7c-.5 0-.9.4-.6.9l12.8 12.2c.4.4 1 .6 1.5.6h13.4L47 40.5z" fill="#0089D6"/>
  <path d="M22.4 7c-1-.1-1.9.5-2.2 1.5L7.5 51.8c-.4 1.2.3 2.4 1.5 2.7h11c.9-.2 1.6-.8 1.9-1.7L25.5 42l8.7 8.3c.4.3.9.5 1.4.5h13.3l-5.8-13.6-18.5.1L35 7H22.4z" fill="url(#azure_grad)"/>
  <path d="M44.6 8.5c-.3-.9-1.1-1.5-2.1-1.5H22.7c1 0 1.8.6 2.1 1.5l12.6 43.4c.4 1.2-.3 2.5-1.6 2.8-.2.1-.4.1-.6.1h19.8c1.2 0 2.2-1 2.2-2.2 0-.3-.1-.6-.2-.9L44.6 8.5z" fill="#0089D6"/>
  <defs>
    <linearGradient id="azure_grad" x1="30.2" y1="19.6" x2="23.2" y2="54.6" gradientUnits="userSpaceOnUse">
      <stop stop-color="#0089D6" stop-opacity="0"/>
      <stop offset="1" stop-color="#0053A0"/>
    </linearGradient>
  </defs>
</svg>