<svg xmlns="http://www.w3.org/2000/svg" viewBox="0 0 64 64" fill="none">
  <path d="M40.6 18.4h1.8l5.2-5.2.3-2.2C43.3 7 37.8 5 32 5c-8.5 0-16 4.8-19.7 11.9l1.9-.3 10.4-1.7.8-.8C28.1 10.8 33.8 9.5 39 12c.6.3 1.1.6 1.6 1l0 5.4z" fill="#EA4335"/>
  <path d="M51.3 16.9C49.5 13.5 46.9 10.7 43.8 8.8l0 0-7.3 7.3c3.2 2 5.4 5.3 5.8 9.2h1.5c0 0 0 0 0 0h5.8l.9-.1v-.1c.3-3-.1-6.1-1.2-8.9l2 .7z" fill="#4285F4"/>
  <path d="M32 43.8c-4.7 0-8.8-2.7-10.7-6.7l-1.9.6-5.3 5.3-.4 1.7C17.1 50.8 24 55 32 55c5.3 0 10.3-1.9 14.2-5.2l-7-5.4c-2 1.5-4.5 2.4-7.2 2.4v-3z" fill="#34A853"/>
  <path d="M21.3 37.1C20.5 35.5 20 33.8 20 32s.5-3.5 1.3-5.1v-2.3l-5.5-5.1-1.7.7C11.7 24.1 10 27.8 10 32c0 4.2 1.7 7.9 4.1 11.1l7.2-6z" fill="#FBBC05"/>
  <path d="M32 20.2c3.6 0 6.1 1.6 7.5 2.9l5.5-5.4C42 15 37.5 13 32 13c-8 0-14.9 4.2-18.4 10.4l7.1 5.7C22.6 24.6 27 20.2 32 20.2z" fill="#EA4335"/>
  <path d="M51.3 16.9l-2-.7c1.1 2.8 1.5 5.9 1.2 8.9v.1l-.9.1h-5.8c0 0 0 0 0 0H42.3V32c0 3.3-1.3 6.2-3.5 8.4l7 5.4c4-3.4 6.5-8.4 6.5-13.8 0-2.4-.5-5.2-1-7.1V25z" fill="#4285F4"/>
  <path d="M32 43.8v3c2.7 0 5.2-.9 7.2-2.4l.6-.4-7-5.4-.8.5c-1.7 1.2-3.8 1.8-6 1.8H32v2.5z" fill="#34A853"/>
</svg>